<?xml version="1.0" standalone="no"?>
<!DOCTYPE svg PUBLIC "-//W3C//DTD SVG 20010904//EN"
 "http://www.w3.org/TR/2001/REC-SVG-20010904/DTD/svg10.dtd">
<svg version="1.0" xmlns="http://www.w3.org/2000/svg"
 width="425.000000pt" height="425.000000pt" viewBox="0 0 425.000000 425.000000"
 preserveAspectRatio="xMidYMid meet">
<metadata>
Created by potrace 1.14, written by Peter Selinger 2001-2017
</metadata>
<g transform="translate(0.000000,425.000000) scale(0.100000,-0.100000)"
fill="#000000" stroke="none">
<path d="M1373 3345 c-339 -61 -651 -303 -816 -630 -16 -33 -46 -67 -87 -100
-111 -89 -200 -215 -244 -347 -59 -175 -17 -367 111 -500 l36 -36 -12 -84 c-7
-46 -21 -132 -33 -193 -18 -96 -19 -120 -10 -188 15 -106 59 -194 132 -267
138 -138 346 -177 528 -99 l45 19 66 -26 c118 -48 327 -45 448 7 l46 19 64
-25 c79 -32 178 -42 256 -25 64 13 184 69 211 99 17 19 19 19 73 -20 138 -96
307 -114 460 -48 l46 19 66 -26 c118 -48 332 -45 450 7 l44 19 64 -26 c291
-116 621 90 640 398 4 61 0 111 -16 188 -11 58 -27 151 -34 207 l-14 102 44
43 c26 25 61 77 85 125 36 72 41 92 46 171 3 54 0 111 -8 143 -31 137 -142
304 -265 400 -82 64 -89 72 -156 177 -228 353 -685 569 -1055 499 -147 -28
-287 -96 -388 -188 l-56 -51 -52 45 c-167 141 -345 208 -550 206 -51 0 -125
-7 -165 -14z m310 -175 c232 -72 398 -329 399 -615 0 -122 -132 -1067 -156
-1113 -21 -41 -58 -62 -108 -62 -49 0 -64 8 -129 74 -43 43 -50 46 -97 46 -48
0 -56 -4 -123 -60 l-71 -60 -90 0 c-49 0 -99 5 -111 11 -12 7 -43 34 -68 60
-43 46 -48 49 -96 49 -47 0 -55 -4 -124 -60 -69 -56 -77 -60 -125 -60 -60 0
-99 25 -121 78 -12 29 -12 43 1 110 16 76 66 411 66 437 0 9 -11 12 -39 8 -79
-11 -151 53 -151 133 0 85 99 222 205 286 53 31 53 32 60 92 45 411 517 758
878 646z m1265 -18 c112 -42 193 -93 285 -181 82 -79 151 -174 186 -256 22
-53 51 -158 51 -185 0 -9 15 -24 34 -32 98 -47 226 -213 226 -292 0 -80 -54
-137 -135 -144 -42 -3 -55 -8 -55 -21 0 -31 50 -376 66 -455 20 -99 13 -136
-32 -175 -49 -43 -114 -44 -170 -1 -21 17 -57 44 -78 60 -29 22 -50 30 -80 30
-47 0 -62 -9 -127 -74 l-46 -46 -95 0 c-88 0 -98 2 -134 28 -21 16 -45 36 -53
46 -34 41 -117 59 -162 35 -11 -6 -42 -33 -68 -60 -45 -46 -50 -49 -99 -49
-45 0 -57 5 -88 33 l-37 33 -73 515 c-41 287 -73 549 -73 594 -1 113 21 205
74 312 74 150 181 252 314 300 58 21 79 23 176 20 92 -4 123 -9 193 -35z"/>
<path d="M1378 2622 c-44 -23 -60 -72 -61 -192 -2 -158 44 -260 141 -318 39
-22 59 -27 117 -27 59 0 79 5 123 30 62 34 102 76 136 143 45 89 50 163 14
197 -21 20 -332 153 -406 175 -22 6 -39 4 -64 -8z"/>
<path d="M2605 2559 c-110 -44 -208 -89 -219 -99 -44 -43 -7 -175 75 -264 103
-113 257 -124 364 -25 74 69 115 208 101 343 -7 57 -13 74 -36 98 -18 18 -39
28 -57 28 -15 -1 -118 -37 -228 -81z"/>
</g>
</svg>
